<svg width="24" height="24" viewBox="0 0 24 24" fill="none" xmlns="http://www.w3.org/2000/svg">
<path d="M14.71 15.88L10.83 12L14.71 8.11999C14.8026 8.02741 14.876 7.9175 14.9261 7.79653C14.9762 7.67557 15.002 7.54592 15.002 7.41499C15.002 7.28406 14.9762 7.15441 14.9261 7.03345C14.876 6.91248 14.8026 6.80257 14.71 6.70999C14.6174 6.61741 14.5075 6.54397 14.3865 6.49386C14.2656 6.44376 14.1359 6.41797 14.005 6.41797C13.8741 6.41797 13.7444 6.44376 13.6235 6.49386C13.5025 6.54397 13.3926 6.61741 13.3 6.70999L8.71 11.3C8.6173 11.3925 8.54375 11.5024 8.49357 11.6234C8.44339 11.7443 8.41756 11.874 8.41756 12.005C8.41756 12.136 8.44339 12.2656 8.49357 12.3866C8.54375 12.5076 8.6173 12.6175 8.71 12.71L13.3 17.3C13.69 17.69 14.32 17.69 14.71 17.3C15.09 16.91 15.1 16.27 14.71 15.88Z" fill="#565656"/>
</svg>
