<svg width="24" height="24" viewBox="0 0 24 24" fill="none" xmlns="http://www.w3.org/2000/svg">
<path d="M6.0539 12.5906L16.6195 20.843C16.6471 20.8647 16.6803 20.8782 16.7153 20.8819C16.7502 20.8857 16.7855 20.8795 16.8171 20.864C16.8486 20.8486 16.8752 20.8246 16.8938 20.7948C16.9123 20.7649 16.922 20.7304 16.9219 20.6953V18.8836C16.9219 18.7688 16.868 18.6586 16.7789 18.5883L8.3414 12L16.7789 5.41172C16.8703 5.34141 16.9219 5.23125 16.9219 5.11641V3.30469C16.9219 3.14766 16.7414 3.06094 16.6195 3.15703L6.0539 11.4094C5.9641 11.4794 5.89146 11.569 5.84149 11.6714C5.79153 11.7737 5.76555 11.8861 5.76555 12C5.76555 12.1139 5.79153 12.2263 5.84149 12.3286C5.89146 12.431 5.9641 12.5206 6.0539 12.5906Z" fill="#565656"/>
</svg>
