<svg width="16" height="16" viewBox="0 0 16 16" fill="none" xmlns="http://www.w3.org/2000/svg">
  <path d="M5.00002 1.33325C5.35364 1.33325 5.69278 1.47373 5.94283 1.72378C6.19288 1.97382 6.33335 2.31296 6.33335 2.66659C6.33335 3.02021 6.19288 3.35935 5.94283 3.60939C5.69278 3.85944 5.35364 3.99992 5.00002 3.99992C4.6464 3.99992 4.30726 3.85944 4.05721 3.60939C3.80716 3.35935 3.66669 3.02021 3.66669 2.66659C3.66669 2.31296 3.80716 1.97382 4.05721 1.72378C4.30726 1.47373 4.6464 1.33325 5.00002 1.33325ZM4.00002 4.66659H6.00002C6.35364 4.66659 6.69278 4.80706 6.94283 5.05711C7.19288 5.30716 7.33335 5.6463 7.33335 5.99992V9.66659H6.33335V14.6666H3.66669V9.66659H2.66669V5.99992C2.66669 5.6463 2.80716 5.30716 3.05721 5.05711C3.30726 4.80706 3.6464 4.66659 4.00002 4.66659ZM9.66669 7.99992C9.66669 7.6463 9.80716 7.30716 10.0572 7.05711C10.3073 6.80706 10.6464 6.66659 11 6.66659C11.3536 6.66659 11.6928 6.80706 11.9428 7.05711C12.1929 7.30716 12.3334 7.6463 12.3334 7.99992C12.3334 8.35354 12.1929 8.69268 11.9428 8.94273C11.6928 9.19278 11.3536 9.33325 11 9.33325C10.6464 9.33325 10.3073 9.19278 10.0572 8.94273C9.80716 8.69268 9.66669 8.35354 9.66669 7.99992ZM9.00002 9.99992H13V12.6666H12V14.6666H10V12.6666H9.00002V9.99992Z" fill="#607180"/>
</svg>
