<svg width="24" height="24" viewBox="0 0 24 24" fill="none" xmlns="http://www.w3.org/2000/svg">
<path d="M4.24993 5.61C6.26993 8.2 9.99993 13 9.99993 13V19C9.99993 19.55 10.4499 20 10.9999 20H12.9999C13.5499 20 13.9999 19.55 13.9999 19V13C13.9999 13 17.7199 8.2 19.7399 5.61C19.8545 5.46237 19.9254 5.28553 19.9444 5.09961C19.9635 4.91368 19.9299 4.72615 19.8476 4.55837C19.7652 4.39059 19.6374 4.24929 19.4787 4.15058C19.3201 4.05186 19.1368 3.99969 18.9499 4H5.03993C4.20993 4 3.73993 4.95 4.24993 5.61Z" fill="#565656"/>
</svg>
