<svg width="24" height="24" viewBox="0 0 24 24" fill="none" xmlns="http://www.w3.org/2000/svg">
<path fill-rule="evenodd" clip-rule="evenodd" d="M0.00012207 12C0.00012207 18.6274 5.37271 24 12.0001 24C18.6275 24 24.0001 18.6274 24.0001 12C24.0001 5.37258 18.6275 0 12.0001 0C5.37271 0 0.00012207 5.37258 0.00012207 12ZM2.00012 12C2.00012 17.5228 6.47727 22 12.0001 22C17.523 22 22.0001 17.5228 22.0001 12C22.0001 6.47715 17.523 2 12.0001 2C6.47727 2 2.00012 6.47715 2.00012 12Z" fill="url(#paint0_angular_5355_10738)"/>
<path fill-rule="evenodd" clip-rule="evenodd" d="M14.3995 22.7816C14.4702 23.3293 14.0834 23.8306 13.5357 23.9013C13.0265 23.967 12.5136 24 12.0002 24C11.4479 24 11.0002 23.5522 11.0002 23C11.0002 22.4477 11.4479 22 12.0002 22C12.428 22 12.8554 21.9725 13.2798 21.9178C13.8275 21.8471 14.3288 22.2338 14.3995 22.7816Z" fill="#428BCA"/>
<defs>
<radialGradient id="paint0_angular_5355_10738" cx="0" cy="0" r="1" gradientUnits="userSpaceOnUse" gradientTransform="translate(12.0001 12) rotate(90) scale(12)">
<stop stop-color="#428BCA"/>
<stop offset="0.0001" stop-color="#3AE180" stop-opacity="0"/>
<stop offset="1" stop-color="#428BCA"/>
</radialGradient>
</defs>
</svg>
