<svg width="10" height="16" viewBox="0 0 10 16" fill="none" xmlns="http://www.w3.org/2000/svg">
<path d="M0.258463 8.532L9.72899 15.964C9.75374 15.9835 9.78348 15.9957 9.8148 15.9991C9.84612 16.0024 9.87774 15.9968 9.90604 15.9829C9.93434 15.969 9.95817 15.9474 9.97479 15.9205C9.99141 15.8937 10.0001 15.8626 10 15.831V14.1994C10 14.0959 9.95168 13.9967 9.87185 13.9334L2.30887 8.00009L9.87185 2.06677C9.95378 2.00344 10 1.90424 10 1.80081V0.169201C10 0.027781 9.83823 -0.0503166 9.72899 0.0362242L0.258463 7.46818C0.177969 7.53126 0.112854 7.61196 0.0680666 7.70413C0.0232795 7.7963 0 7.89752 0 8.00009C0 8.10266 0.0232795 8.20387 0.0680666 8.29605C0.112854 8.38822 0.177969 8.46891 0.258463 8.532Z" fill="black" fill-opacity="0.85"/>
</svg>
