<svg width="16" height="16" viewBox="0 0 16 16" fill="none" xmlns="http://www.w3.org/2000/svg">
  <path d="M13.5 2.5H2.5C2.23478 2.5 1.98043 2.60536 1.79289 2.79289C1.60536 2.98043 1.5 3.23478 1.5 3.5V12.5C1.5 12.7652 1.60536 13.0196 1.79289 13.2071C1.98043 13.3946 2.23478 13.5 2.5 13.5H3.3375C3.43218 13.5003 3.52494 13.4733 3.60472 13.4223C3.6845 13.3714 3.74795 13.2985 3.7875 13.2125C4.03214 12.7005 4.4167 12.2682 4.8967 11.9656C5.37671 11.663 5.93256 11.5024 6.5 11.5024C7.06744 11.5024 7.62329 11.663 8.1033 11.9656C8.5833 12.2682 8.96786 12.7005 9.2125 13.2125C9.25205 13.2985 9.3155 13.3714 9.39528 13.4223C9.47506 13.4733 9.56782 13.5003 9.6625 13.5H13.5C13.7652 13.5 14.0196 13.3946 14.2071 13.2071C14.3946 13.0196 14.5 12.7652 14.5 12.5V3.5C14.5 3.23478 14.3946 2.98043 14.2071 2.79289C14.0196 2.60536 13.7652 2.5 13.5 2.5ZM6.5 10.5C6.10444 10.5 5.71776 10.3827 5.38886 10.1629C5.05996 9.94318 4.80362 9.63082 4.65224 9.26537C4.50087 8.89992 4.46126 8.49778 4.53843 8.10982C4.6156 7.72186 4.80608 7.36549 5.08579 7.08579C5.36549 6.80608 5.72186 6.6156 6.10982 6.53843C6.49778 6.46126 6.89991 6.50087 7.26537 6.65224C7.63082 6.80362 7.94318 7.05996 8.16294 7.38886C8.3827 7.71776 8.5 8.10444 8.5 8.5C8.49835 9.02993 8.28711 9.53768 7.91239 9.91239C7.53768 10.2871 7.02993 10.4984 6.5 10.5ZM13.5 12.5H9.9625C9.74587 12.1243 9.46931 11.7865 9.14375 11.5H12C12.1326 11.5 12.2598 11.4473 12.3536 11.3536C12.4473 11.2598 12.5 11.1326 12.5 11V5C12.5 4.86739 12.4473 4.74022 12.3536 4.64645C12.2598 4.55268 12.1326 4.5 12 4.5H4C3.86739 4.5 3.74021 4.55268 3.64645 4.64645C3.55268 4.74022 3.5 4.86739 3.5 5V11C3.50063 11.1104 3.53776 11.2174 3.60559 11.3045C3.67342 11.3915 3.76815 11.4537 3.875 11.4813C3.54156 11.7723 3.25857 12.1166 3.0375 12.5H2.5V3.5H13.5V12.5Z" fill="#607180"/>
</svg>
