<svg width="16" height="17" viewBox="0 0 16 17" fill="none" xmlns="http://www.w3.org/2000/svg">
  <path d="M12 9.16675H11.5467L10.2133 10.5001H11.4867L12.6667 11.8334H3.33333L4.52 10.5001H5.88667L4.55333 9.16675H4L2 11.1667V13.8334C2 14.187 2.14048 14.5262 2.39052 14.7762C2.64057 15.0263 2.97971 15.1667 3.33333 15.1667H12.6667C13.0203 15.1667 13.3594 15.0263 13.6095 14.7762C13.8595 14.5262 14 14.187 14 13.8334V11.1667L12 9.16675ZM11.3333 5.80008L8.03333 9.10008L5.66667 6.74008L8.97333 3.44008L11.3333 5.80008ZM8.50667 2.02675L4.26 6.27341C4.1982 6.33509 4.14917 6.40835 4.11571 6.489C4.08226 6.56965 4.06504 6.6561 4.06504 6.74341C4.06504 6.83073 4.08226 6.91718 4.11571 6.99783C4.14917 7.07848 4.1982 7.15174 4.26 7.21341L7.56 10.5001C7.82 10.7734 8.24 10.7734 8.5 10.5001L12.74 6.27341C12.8018 6.21174 12.8508 6.13848 12.8843 6.05783C12.9177 5.97718 12.935 5.89073 12.935 5.80341C12.935 5.7161 12.9177 5.62965 12.8843 5.549C12.8508 5.46835 12.8018 5.39509 12.74 5.33341L9.44 2.03341C9.37985 1.97048 9.30768 1.92027 9.22776 1.88577C9.14783 1.85126 9.06179 1.83316 8.97474 1.83254C8.88769 1.83191 8.80141 1.84878 8.721 1.88215C8.64059 1.91551 8.56771 1.96468 8.50667 2.02675Z" fill="#607180"/>
</svg>
