<svg width="16" height="16" viewBox="0 0 16 16" fill="none" xmlns="http://www.w3.org/2000/svg">
<path d="M12.1934 11.5266C12.2552 11.465 12.3042 11.3917 12.3377 11.3111C12.3711 11.2304 12.3883 11.144 12.3883 11.0566C12.3883 10.9693 12.3711 10.8829 12.3377 10.8022C12.3042 10.7216 12.2552 10.6483 12.1934 10.5866L9.61336 7.99997L12.2 5.41331C12.2617 5.35158 12.3107 5.27831 12.3441 5.19767C12.3775 5.11703 12.3947 5.03059 12.3947 4.94331C12.3947 4.85602 12.3775 4.76959 12.3441 4.68894C12.3107 4.6083 12.2617 4.53503 12.2 4.47331C12.1383 4.41158 12.065 4.36262 11.9844 4.32922C11.9037 4.29582 11.8173 4.27863 11.73 4.27863C11.6427 4.27863 11.5563 4.29582 11.4757 4.32922C11.395 4.36262 11.3217 4.41158 11.26 4.47331L8.20003 7.53331C8.13823 7.59498 8.08919 7.66824 8.05574 7.74889C8.02229 7.82954 8.00507 7.91599 8.00507 8.00331C8.00507 8.09062 8.02229 8.17707 8.05574 8.25772C8.08919 8.33837 8.13823 8.41163 8.20003 8.47331L11.26 11.5333C11.5134 11.7866 11.9334 11.7866 12.1934 11.5266Z" fill="#565656"/>
<path d="M7.79999 11.5266C7.86179 11.465 7.91082 11.3917 7.94428 11.3111C7.97773 11.2304 7.99495 11.144 7.99495 11.0566C7.99495 10.9693 7.97773 10.8829 7.94428 10.8022C7.91082 10.7216 7.86179 10.6483 7.79999 10.5866L5.21999 7.99997L7.80666 5.41331C7.93131 5.28865 8.00134 5.11959 8.00134 4.94331C8.00134 4.76702 7.93131 4.59796 7.80666 4.47331C7.682 4.34865 7.51294 4.27863 7.33666 4.27863C7.16037 4.27863 6.99131 4.34865 6.86666 4.47331L3.80666 7.53331C3.74485 7.59498 3.69582 7.66824 3.66237 7.74889C3.62891 7.82954 3.61169 7.91599 3.61169 8.00331C3.61169 8.09062 3.62891 8.17707 3.66237 8.25772C3.69582 8.33837 3.74485 8.41163 3.80666 8.47331L6.86666 11.5333C7.11999 11.7866 7.53999 11.7866 7.79999 11.5266V11.5266Z" fill="#565656"/>
</svg>
