<svg width="16" height="16" viewBox="0 0 16 16" fill="none" xmlns="http://www.w3.org/2000/svg">
<path d="M3.8 4.47332C3.7382 4.535 3.68917 4.60826 3.65572 4.6889C3.62226 4.76955 3.60504 4.85601 3.60504 4.94332C3.60504 5.03063 3.62226 5.11709 3.65572 5.19774C3.68917 5.27839 3.7382 5.35164 3.8 5.41332L6.38667 7.99999L3.8 10.5867C3.73828 10.6484 3.68932 10.7216 3.65592 10.8023C3.62252 10.8829 3.60532 10.9694 3.60532 11.0567C3.60532 11.1439 3.62252 11.2304 3.65592 11.311C3.68932 11.3917 3.73828 11.4649 3.8 11.5267C3.86173 11.5884 3.935 11.6373 4.01564 11.6707C4.09628 11.7041 4.18272 11.7213 4.27 11.7213C4.35729 11.7213 4.44372 11.7041 4.52437 11.6707C4.60501 11.6373 4.67828 11.5884 4.74 11.5267L7.8 8.46665C7.86181 8.40498 7.91084 8.33172 7.94429 8.25107C7.97775 8.17042 7.99497 8.08397 7.99497 7.99665C7.99497 7.90934 7.97775 7.82289 7.94429 7.74224C7.91084 7.66159 7.86181 7.58833 7.8 7.52665L4.74667 4.47332C4.48667 4.21332 4.06 4.21332 3.8 4.47332Z" fill="#565656"/>
<path d="M8.19331 4.47331C8.13151 4.53498 8.08248 4.60824 8.04903 4.68889C8.01557 4.76954 7.99835 4.856 7.99835 4.94331C7.99835 5.03062 8.01557 5.11707 8.04903 5.19772C8.08248 5.27837 8.13151 5.35163 8.19331 5.41331L10.78 7.99997L8.19331 10.5866C8.06866 10.7113 7.99863 10.8804 7.99863 11.0566C7.99863 11.2329 8.06866 11.402 8.19331 11.5266C8.31797 11.6513 8.48703 11.7213 8.66331 11.7213C8.8396 11.7213 9.00866 11.6513 9.13331 11.5266L12.1933 8.46664C12.2551 8.40496 12.3041 8.33171 12.3376 8.25106C12.3711 8.17041 12.3883 8.08395 12.3883 7.99664C12.3883 7.90933 12.3711 7.82287 12.3376 7.74222C12.3041 7.66158 12.2551 7.58832 12.1933 7.52664L9.13331 4.46664C8.87998 4.21331 8.45331 4.21331 8.19331 4.47331Z" fill="#565656"/>
</svg>
