<svg width="24" height="24" viewBox="0 0 24 24" fill="none" xmlns="http://www.w3.org/2000/svg">
<path d="M14.1429 2C11.5286 2 9.02138 3.05357 7.1728 4.92893C5.32423 6.80429 4.28571 9.34783 4.28571 12H1L5.38095 16.4333L9.7619 12H6.47619C6.47619 7.7 9.90429 4.22222 14.1429 4.22222C18.3814 4.22222 21.8095 7.7 21.8095 12C21.8095 16.3 18.3814 19.7778 14.1429 19.7778C12.029 19.7778 10.1124 18.9 8.73238 17.4889L7.17714 19.0667C8.08993 19.9978 9.17539 20.7364 10.3709 21.2398C11.5665 21.7433 12.8484 22.0016 14.1429 22C16.7571 22 19.2643 20.9464 21.1129 19.0711C22.9615 17.1957 24 14.6522 24 12C24 9.34783 22.9615 6.80429 21.1129 4.92893C19.2643 3.05357 16.7571 2 14.1429 2ZM13.0476 7.55555V13.1111L17.7024 15.9111L18.5457 14.4889L14.6905 12.1667V7.55555H13.0476Z" fill="#565656"/>
</svg>
