<svg width="16" height="16" viewBox="0 0 16 16" fill="none" xmlns="http://www.w3.org/2000/svg">
<path d="M9.80666 10.5866L7.21999 7.99997L9.80666 5.41331C9.86838 5.35158 9.91734 5.27831 9.95074 5.19767C9.98414 5.11703 10.0013 5.03059 10.0013 4.94331C10.0013 4.85602 9.98414 4.76959 9.95074 4.68894C9.91734 4.6083 9.86838 4.53503 9.80666 4.47331C9.74494 4.41158 9.67166 4.36262 9.59102 4.32922C9.51038 4.29582 9.42394 4.27863 9.33666 4.27863C9.24937 4.27863 9.16294 4.29582 9.08229 4.32922C9.00165 4.36262 8.92838 4.41158 8.86666 4.47331L5.80666 7.53331C5.74485 7.59498 5.69582 7.66824 5.66237 7.74889C5.62891 7.82954 5.61169 7.91599 5.61169 8.00331C5.61169 8.09062 5.62891 8.17707 5.66237 8.25772C5.69582 8.33837 5.74485 8.41163 5.80666 8.47331L8.86666 11.5333C9.12666 11.7933 9.54666 11.7933 9.80666 11.5333C10.06 11.2733 10.0667 10.8466 9.80666 10.5866Z" fill="#565656"/>
</svg>
