<svg width="11" height="14" viewBox="0 0 11 14" fill="none" xmlns="http://www.w3.org/2000/svg">
<path d="M3.00002 0.333313C3.35364 0.333313 3.69278 0.473789 3.94283 0.723837C4.19288 0.973886 4.33335 1.31302 4.33335 1.66665C4.33335 2.02027 4.19288 2.35941 3.94283 2.60946C3.69278 2.8595 3.35364 2.99998 3.00002 2.99998C2.6464 2.99998 2.30726 2.8595 2.05721 2.60946C1.80716 2.35941 1.66669 2.02027 1.66669 1.66665C1.66669 1.31302 1.80716 0.973886 2.05721 0.723837C2.30726 0.473789 2.6464 0.333313 3.00002 0.333313ZM2.00002 3.66665H4.00002C4.35364 3.66665 4.69278 3.80712 4.94283 4.05717C5.19288 4.30722 5.33335 4.64636 5.33335 4.99998V8.66665H4.33335V13.6666H1.66669V8.66665H0.666687V4.99998C0.666687 4.64636 0.807163 4.30722 1.05721 4.05717C1.30726 3.80712 1.6464 3.66665 2.00002 3.66665ZM7.66669 6.99998C7.66669 6.64636 7.80716 6.30722 8.05721 6.05717C8.30726 5.80712 8.6464 5.66665 9.00002 5.66665C9.35364 5.66665 9.69278 5.80712 9.94283 6.05717C10.1929 6.30722 10.3334 6.64636 10.3334 6.99998C10.3334 7.3536 10.1929 7.69274 9.94283 7.94279C9.69278 8.19284 9.35364 8.33331 9.00002 8.33331C8.6464 8.33331 8.30726 8.19284 8.05721 7.94279C7.80716 7.69274 7.66669 7.3536 7.66669 6.99998ZM7.00002 8.99998H11V11.6666H10V13.6666H8.00002V11.6666H7.00002V8.99998Z" fill="#607180"/>
</svg>
