<svg width="16" height="10" viewBox="0 0 16 10" fill="none" xmlns="http://www.w3.org/2000/svg">
<path d="M10.6667 4.33331C11.7734 4.33331 12.66 3.43998 12.66 2.33331C12.66 1.22665 11.7734 0.333313 10.6667 0.333313C9.56002 0.333313 8.66669 1.22665 8.66669 2.33331C8.66669 3.43998 9.56002 4.33331 10.6667 4.33331ZM5.33335 4.33331C6.44002 4.33331 7.32669 3.43998 7.32669 2.33331C7.32669 1.22665 6.44002 0.333313 5.33335 0.333313C4.22669 0.333313 3.33335 1.22665 3.33335 2.33331C3.33335 3.43998 4.22669 4.33331 5.33335 4.33331ZM5.33335 5.66665C3.78002 5.66665 0.666687 6.44665 0.666687 7.99998V9.66665H10V7.99998C10 6.44665 6.88669 5.66665 5.33335 5.66665ZM10.6667 5.66665C10.4734 5.66665 10.2534 5.67998 10.02 5.69998C10.7934 6.25998 11.3334 7.01331 11.3334 7.99998V9.66665H15.3334V7.99998C15.3334 6.44665 12.22 5.66665 10.6667 5.66665Z" fill="black" fill-opacity="0.75"/>
</svg>
