<svg width="12" height="14" viewBox="0 0 12 14" fill="none" xmlns="http://www.w3.org/2000/svg">
<path d="M0 3.66659V2.33325H1.33333V1.66659C1.33333 1.31296 1.47381 0.973825 1.72386 0.723776C1.97391 0.473728 2.31304 0.333252 2.66667 0.333252H6.66667V4.99992L8.33333 3.99992L10 4.99992V0.333252H10.6667C11.3667 0.333252 12 0.966585 12 1.66659V12.3333C12 13.0333 11.3667 13.6666 10.6667 13.6666H2.66667C1.96667 13.6666 1.33333 13.0333 1.33333 12.3333V11.6666H0V10.3333H1.33333V7.66659H0V6.33325H1.33333V3.66659H0ZM2.66667 6.33325H1.33333V7.66659H2.66667V6.33325ZM2.66667 3.66659V2.33325H1.33333V3.66659H2.66667ZM2.66667 11.6666V10.3333H1.33333V11.6666H2.66667Z" fill="black" fill-opacity="0.75"/>
</svg>
