<svg width="16" height="16" viewBox="0 0 16 16" fill="none" xmlns="http://www.w3.org/2000/svg">
  <path d="M14.1563 3.52496L8.15626 1.52496C8.05445 1.49363 7.94557 1.49363 7.84376 1.52496L1.85001 3.52496H1.83751L1.77501 3.55621H1.76876L1.70626 3.59371C1.70626 3.59996 1.70001 3.59996 1.69376 3.60621L1.64376 3.64996L1.60001 3.69996C1.60001 3.70621 1.59376 3.70621 1.59376 3.71246L1.55626 3.76871C1.55626 3.77496 1.55626 3.77496 1.55001 3.78121L1.52501 3.83746L1.50626 3.90621V3.92496C1.5001 3.94945 1.49799 3.97479 1.50001 3.99996V8.99996C1.50001 9.13257 1.55269 9.25975 1.64646 9.35352C1.74023 9.44729 1.8674 9.49996 2.00001 9.49996C2.13262 9.49996 2.2598 9.44729 2.35357 9.35352C2.44733 9.25975 2.50001 9.13257 2.50001 8.99996V4.69371L4.60001 5.39371C4.20549 6.02521 3.99749 6.75536 4.00001 7.49996C4.00024 8.17715 4.1724 8.8432 4.50034 9.43569C4.82829 10.0282 5.30129 10.5277 5.87501 10.8875C4.68276 11.3385 3.66492 12.1571 2.96876 13.225C2.8978 13.3372 2.87376 13.4728 2.90182 13.6025C2.92988 13.7323 3.00779 13.8458 3.11876 13.9187C3.17322 13.9548 3.2343 13.9797 3.29846 13.992C3.36262 14.0043 3.42859 14.0038 3.49253 13.9904C3.55648 13.977 3.61714 13.9511 3.67099 13.9141C3.72484 13.8771 3.77082 13.8298 3.80626 13.775C4.26009 13.0759 4.88147 12.5014 5.6139 12.1036C6.34632 11.7059 7.16656 11.4975 8.00001 11.4975C8.83347 11.4975 9.6537 11.7059 10.3861 12.1036C11.1186 12.5014 11.7399 13.0759 12.1938 13.775C12.2394 13.8443 12.3016 13.9011 12.3747 13.9404C12.4478 13.9797 12.5295 14.0002 12.6125 14C12.7083 14.001 12.8021 13.9726 12.8813 13.9187C12.9922 13.8458 13.0701 13.7323 13.0982 13.6025C13.1263 13.4728 13.1022 13.3372 13.0313 13.225C12.3351 12.1571 11.3173 11.3385 10.125 10.8875C10.6987 10.5277 11.1717 10.0282 11.4997 9.43569C11.8276 8.8432 11.9998 8.17715 12 7.49996C12.0025 6.75536 11.7945 6.02521 11.4 5.39371L14.1563 4.47496C14.2563 4.44208 14.3434 4.37846 14.4051 4.29317C14.4669 4.20787 14.5001 4.10526 14.5001 3.99996C14.5001 3.89466 14.4669 3.79205 14.4051 3.70676C14.3434 3.62146 14.2563 3.55784 14.1563 3.52496V3.52496ZM8.00001 10.5C7.20436 10.5 6.4413 10.1839 5.87869 9.62128C5.31608 9.05868 5.00001 8.29561 5.00001 7.49996C5.00122 6.8598 5.20465 6.23638 5.58126 5.71871L7.84376 6.47496C7.94525 6.50835 8.05477 6.50835 8.15626 6.47496L10.4188 5.71871C10.7954 6.23638 10.9988 6.8598 11 7.49996C11 8.29561 10.6839 9.05868 10.1213 9.62128C9.55873 10.1839 8.79566 10.5 8.00001 10.5Z" fill="#565656"/>
</svg>

