<svg width="14" height="13" viewBox="0 0 14 13" fill="none" xmlns="http://www.w3.org/2000/svg">
<path d="M13.1563 2.52502L7.15626 0.525023C7.05445 0.493693 6.94557 0.493693 6.84376 0.525023L0.850013 2.52502H0.837513L0.775013 2.55627H0.768763L0.706263 2.59377C0.706263 2.60002 0.700013 2.60002 0.693763 2.60627L0.643763 2.65002L0.600013 2.70002C0.600013 2.70627 0.593763 2.70627 0.593763 2.71252L0.556263 2.76877C0.556263 2.77502 0.556263 2.77502 0.550013 2.78127L0.525013 2.83752L0.506263 2.90627V2.92502C0.500098 2.94951 0.497987 2.97485 0.500013 3.00002V8.00002C0.500013 8.13263 0.552691 8.25981 0.64646 8.35358C0.740228 8.44735 0.867405 8.50002 1.00001 8.50002C1.13262 8.50002 1.2598 8.44735 1.35357 8.35358C1.44733 8.25981 1.50001 8.13263 1.50001 8.00002V3.69377L3.60001 4.39377C3.20549 5.02527 2.99749 5.75542 3.00001 6.50002C3.00024 7.17722 3.1724 7.84326 3.50034 8.43575C3.82829 9.02824 4.30129 9.52777 4.87501 9.88752C3.68276 10.3386 2.66492 11.1572 1.96876 12.225C1.8978 12.3372 1.87376 12.4728 1.90182 12.6026C1.92988 12.7324 2.00779 12.8459 2.11876 12.9188C2.17322 12.9549 2.2343 12.9798 2.29846 12.9921C2.36262 13.0044 2.42859 13.0038 2.49253 12.9905C2.55648 12.9771 2.61714 12.9512 2.67099 12.9142C2.72484 12.8772 2.77082 12.8299 2.80626 12.775C3.26009 12.076 3.88147 11.5014 4.6139 11.1037C5.34632 10.706 6.16656 10.4976 7.00001 10.4976C7.83347 10.4976 8.6537 10.706 9.38613 11.1037C10.1186 11.5014 10.7399 12.076 11.1938 12.775C11.2394 12.8443 11.3016 12.9012 11.3747 12.9405C11.4478 12.9798 11.5295 13.0002 11.6125 13C11.7083 13.001 11.8021 12.9727 11.8813 12.9188C11.9922 12.8459 12.0701 12.7324 12.0982 12.6026C12.1263 12.4728 12.1022 12.3372 12.0313 12.225C11.3351 11.1572 10.3173 10.3386 9.12501 9.88752C9.69874 9.52777 10.1717 9.02824 10.4997 8.43575C10.8276 7.84326 10.9998 7.17722 11 6.50002C11.0025 5.75542 10.7945 5.02527 10.4 4.39377L13.1563 3.47502C13.2563 3.44214 13.3434 3.37852 13.4051 3.29323C13.4669 3.20793 13.5001 3.10532 13.5001 3.00002C13.5001 2.89472 13.4669 2.79211 13.4051 2.70682C13.3434 2.62153 13.2563 2.5579 13.1563 2.52502ZM7.00001 9.50002C6.20436 9.50002 5.4413 9.18396 4.87869 8.62135C4.31608 8.05874 4.00001 7.29567 4.00001 6.50002C4.00122 5.85986 4.20465 5.23644 4.58126 4.71877L6.84376 5.47502C6.94525 5.50841 7.05477 5.50841 7.15626 5.47502L9.41876 4.71877C9.79538 5.23644 9.99881 5.85986 10 6.50002C10 7.29567 9.68394 8.05874 9.12134 8.62135C8.55873 9.18396 7.79566 9.50002 7.00001 9.50002Z" fill="#607180"/>
</svg>
