<svg width="12" height="14" viewBox="0 0 12 14" fill="none" xmlns="http://www.w3.org/2000/svg">
<path d="M11 0.5H2.5C1.97007 0.501648 1.46232 0.712891 1.08761 1.08761C0.712891 1.46232 0.501648 1.97007 0.5 2.5V13C0.5 13.1326 0.552679 13.2598 0.646447 13.3536C0.740215 13.4473 0.867392 13.5 1 13.5H10C10.1326 13.5 10.2598 13.4473 10.3536 13.3536C10.4473 13.2598 10.5 13.1326 10.5 13C10.5 12.8674 10.4473 12.7402 10.3536 12.6464C10.2598 12.5527 10.1326 12.5 10 12.5H1.5C1.5 12.2348 1.60536 11.9804 1.79289 11.7929C1.98043 11.6054 2.23478 11.5 2.5 11.5H11C11.1326 11.5 11.2598 11.4473 11.3536 11.3536C11.4473 11.2598 11.5 11.1326 11.5 11V1C11.5 0.867392 11.4473 0.740215 11.3536 0.646447C11.2598 0.552678 11.1326 0.5 11 0.5ZM9.5 6.5L7.9 5.3C7.85715 5.26655 7.80436 5.24838 7.75 5.24838C7.69564 5.24838 7.64285 5.26655 7.6 5.3L6 6.5V1.5H9.5V6.5Z" fill="#607180"/>
</svg>
