<svg width="14" height="12" viewBox="0 0 14 12" fill="none" xmlns="http://www.w3.org/2000/svg">
<path d="M12.5 0.5H1.5C1.23478 0.5 0.98043 0.605357 0.792893 0.792893C0.605357 0.98043 0.5 1.23478 0.5 1.5V10.5C0.5 10.7652 0.605357 11.0196 0.792893 11.2071C0.98043 11.3946 1.23478 11.5 1.5 11.5H2.3375C2.43218 11.5003 2.52494 11.4733 2.60472 11.4223C2.6845 11.3714 2.74795 11.2985 2.7875 11.2125C3.03214 10.7005 3.4167 10.2682 3.8967 9.96558C4.37671 9.66295 4.93256 9.50235 5.5 9.50235C6.06744 9.50235 6.62329 9.66295 7.1033 9.96558C7.5833 10.2682 7.96786 10.7005 8.2125 11.2125C8.25205 11.2985 8.3155 11.3714 8.39528 11.4223C8.47506 11.4733 8.56782 11.5003 8.6625 11.5H12.5C12.7652 11.5 13.0196 11.3946 13.2071 11.2071C13.3946 11.0196 13.5 10.7652 13.5 10.5V1.5C13.5 1.23478 13.3946 0.98043 13.2071 0.792893C13.0196 0.605357 12.7652 0.5 12.5 0.5ZM5.5 8.5C5.10444 8.5 4.71776 8.3827 4.38886 8.16294C4.05996 7.94318 3.80362 7.63082 3.65224 7.26537C3.50087 6.89992 3.46126 6.49778 3.53843 6.10982C3.6156 5.72186 3.80608 5.36549 4.08579 5.08579C4.36549 4.80608 4.72186 4.6156 5.10982 4.53843C5.49778 4.46126 5.89991 4.50087 6.26537 4.65224C6.63082 4.80362 6.94318 5.05996 7.16294 5.38886C7.3827 5.71776 7.5 6.10444 7.5 6.5C7.49835 7.02993 7.28711 7.53768 6.91239 7.91239C6.53768 8.28711 6.02993 8.49835 5.5 8.5ZM12.5 10.5H8.9625C8.74587 10.1243 8.46931 9.78652 8.14375 9.5H11C11.1326 9.5 11.2598 9.44732 11.3536 9.35355C11.4473 9.25979 11.5 9.13261 11.5 9V3C11.5 2.86739 11.4473 2.74022 11.3536 2.64645C11.2598 2.55268 11.1326 2.5 11 2.5H3C2.86739 2.5 2.74021 2.55268 2.64645 2.64645C2.55268 2.74022 2.5 2.86739 2.5 3V9C2.50063 9.11036 2.53776 9.2174 2.60559 9.30445C2.67342 9.3915 2.76815 9.45366 2.875 9.48125C2.54156 9.77232 2.25857 10.1166 2.0375 10.5H1.5V1.5H12.5V10.5Z" fill="#607180"/>
</svg>
