<svg width="12" height="15" viewBox="0 0 12 15" fill="none" xmlns="http://www.w3.org/2000/svg">
<path d="M10 8.16666H9.54667L8.21333 9.49999H9.48667L10.6667 10.8333H1.33333L2.52 9.49999H3.88667L2.55333 8.16666H2L0 10.1667V12.8333C0 13.1869 0.140476 13.5261 0.390524 13.7761C0.640573 14.0262 0.979711 14.1667 1.33333 14.1667H10.6667C11.0203 14.1667 11.3594 14.0262 11.6095 13.7761C11.8595 13.5261 12 13.1869 12 12.8333V10.1667L10 8.16666ZM9.33333 4.79999L6.03333 8.09999L3.66667 5.73999L6.97333 2.43999L9.33333 4.79999ZM6.50667 1.02666L2.26 5.27332C2.1982 5.335 2.14917 5.40826 2.11571 5.48891C2.08226 5.56956 2.06504 5.65601 2.06504 5.74332C2.06504 5.83064 2.08226 5.91709 2.11571 5.99774C2.14917 6.07839 2.1982 6.15165 2.26 6.21332L5.56 9.49999C5.82 9.77332 6.24 9.77332 6.5 9.49999L10.74 5.27332C10.8018 5.21165 10.8508 5.13839 10.8843 5.05774C10.9177 4.97709 10.935 4.89064 10.935 4.80332C10.935 4.71601 10.9177 4.62956 10.8843 4.54891C10.8508 4.46826 10.8018 4.395 10.74 4.33332L7.44 1.03332C7.37985 0.970391 7.30768 0.920181 7.22776 0.885675C7.14783 0.851168 7.06179 0.833066 6.97474 0.832445C6.88769 0.831823 6.80141 0.848693 6.721 0.882055C6.64059 0.915416 6.56771 0.964589 6.50667 1.02666Z" fill="#607180"/>
</svg>
