<svg width="16" height="16" viewBox="0 0 16 16" fill="none" xmlns="http://www.w3.org/2000/svg">
<path d="M6.19334 10.5866L8.78 7.99997L6.19334 5.41331C6.13162 5.35158 6.08266 5.27831 6.04925 5.19767C6.01585 5.11703 5.99866 5.03059 5.99866 4.94331C5.99866 4.85602 6.01585 4.76959 6.04925 4.68894C6.08266 4.6083 6.13162 4.53503 6.19334 4.47331C6.25506 4.41158 6.32833 4.36262 6.40898 4.32922C6.48962 4.29582 6.57605 4.27863 6.66334 4.27863C6.75062 4.27863 6.83706 4.29582 6.9177 4.32922C6.99834 4.36262 7.07162 4.41158 7.13334 4.47331L10.1933 7.53331C10.4533 7.79331 10.4533 8.21331 10.1933 8.47331L7.13334 11.5333C7.07166 11.5951 6.9984 11.6441 6.91775 11.6776C6.8371 11.711 6.75065 11.7283 6.66334 11.7283C6.57603 11.7283 6.48957 11.711 6.40892 11.6776C6.32827 11.6441 6.25501 11.5951 6.19334 11.5333C5.94 11.2733 5.93334 10.8466 6.19334 10.5866Z" fill="#565656"/>
</svg>
