<svg width="20" height="20" viewBox="0 0 20 20" fill="none" xmlns="http://www.w3.org/2000/svg">
<path d="M11.7857 1.66699C9.60713 1.66699 7.51779 2.54497 5.97732 4.10777C4.43684 5.67057 3.57141 7.79019 3.57141 10.0003H0.833313L4.48411 13.6948L8.1349 10.0003H5.3968C5.3968 6.41699 8.25355 3.51884 11.7857 3.51884C15.3178 3.51884 18.1746 6.41699 18.1746 10.0003C18.1746 13.5837 15.3178 16.4818 11.7857 16.4818C10.0242 16.4818 8.42696 15.7503 7.27696 14.5744L5.98093 15.8892C6.74159 16.6651 7.64614 17.2806 8.64242 17.7002C9.6387 18.1197 10.707 18.335 11.7857 18.3337C13.9643 18.3337 16.0536 17.4557 17.5941 15.8929C19.1345 14.3301 20 12.2105 20 10.0003C20 7.79019 19.1345 5.67057 17.5941 4.10777C16.0536 2.54497 13.9643 1.66699 11.7857 1.66699ZM10.873 6.29662V10.9262L14.752 13.2596L15.4547 12.0744L12.242 10.1392V6.29662H10.873Z" fill="#565656"/>
</svg>
