<svg width="21" height="20" viewBox="0 0 21 20" fill="none" xmlns="http://www.w3.org/2000/svg">
<path d="M10.5 3.75C6.33331 3.75 2.77498 6.34167 1.33331 10C2.77498 13.6583 6.33331 16.25 10.5 16.25C14.6666 16.25 18.225 13.6583 19.6666 10C18.225 6.34167 14.6666 3.75 10.5 3.75ZM10.5 14.1667C8.19998 14.1667 6.33331 12.3 6.33331 10C6.33331 7.7 8.19998 5.83333 10.5 5.83333C12.8 5.83333 14.6666 7.7 14.6666 10C14.6666 12.3 12.8 14.1667 10.5 14.1667ZM10.5 7.5C9.11665 7.5 7.99998 8.61667 7.99998 10C7.99998 11.3833 9.11665 12.5 10.5 12.5C11.8833 12.5 13 11.3833 13 10C13 8.61667 11.8833 7.5 10.5 7.5Z" fill="#565656"/>
</svg>
